<?xml version="1.0" encoding="utf-8"?>
<!-- Generator: Adobe Illustrator 28.0.0, SVG Export Plug-In . SVG Version: 6.00 Build 0)  -->
<svg version="1.1" id="Layer_1" xmlns="http://www.w3.org/2000/svg" xmlns:xlink="http://www.w3.org/1999/xlink" x="0px" y="0px"
	 viewBox="0 0 1080 1080" style="enable-background:new 0 0 1080 1080;" xml:space="preserve">
<g>
	<path d="M334.19,477.02c0.87-3.76,1.54-7.59,2.65-11.28c9.72-32.33,30.99-52.34,64.41-57.82c43.54-7.15,83.45,22.88,89.87,66.88
		c6.02,41.3-21.35,79.95-62.47,88.26c-42.5,8.59-83.72-18.76-92.84-61.01c-0.57-2.63-1.08-5.27-1.61-7.91
		C334.19,488.43,334.19,482.73,334.19,477.02z M375.93,485.36c-0.31,20.16,16.23,37.15,36.48,37.45
		c20.6,0.31,37.63-16.2,37.95-36.79c0.31-19.88-16.67-37.31-36.57-37.55C393.18,448.23,376.25,464.72,375.93,485.36z"/>
	<path d="M417.39,708.17c1.42-3.96,2.45-8.12,4.33-11.84c35.07-69.19,70.25-138.33,105.4-207.48c15.64-30.77,31.31-61.53,46.9-92.32
		c3.61-7.12,8.82-11.97,16.98-13.11c15.21-2.11,27.5,13,22.2,27.44c-1.26,3.43-3.01,6.7-4.67,9.97
		c-49.88,98.13-99.79,196.24-149.63,294.38c-3.59,7.07-8.39,12.32-16.58,13.61C429.53,730.85,418.43,721.46,417.39,708.17z"/>
	<path d="M620.49,705.69c-43.25,0.14-78.71-35.31-78.91-78.87c-0.2-43.33,35.2-78.94,78.64-79.12c43.31-0.18,78.97,35.28,79.1,78.67
		C699.46,669.97,664.09,705.55,620.49,705.69z M657.59,626.74c0.04-20.47-16.62-37.15-37.11-37.17
		c-20.4-0.02-37.25,16.71-37.32,37.06c-0.07,20.14,17.02,37.26,37.21,37.28C640.71,663.92,657.56,647.09,657.59,626.74z"/>
</g>
</svg>
